<?xml version="1.0" standalone="no"?>
<!DOCTYPE svg PUBLIC "-//W3C//DTD SVG 20010904//EN"
 "http://www.w3.org/TR/2001/REC-SVG-20010904/DTD/svg10.dtd">
<svg version="1.0" xmlns="http://www.w3.org/2000/svg"
 width="18634.000000pt" height="5714.000000pt" viewBox="0 0 18634.000000 5714.000000"
 preserveAspectRatio="xMidYMid meet">

<g transform="translate(0.000000,5714.000000) scale(0.100000,-0.100000)"
fill="#000000" stroke="none">
<path d="M34945 50954 c-1072 -162 -1490 -237 -2035 -365 -1206 -282 -2426
-723 -3475 -1257 l-120 -61 113 0 c132 -1 246 15 500 69 1096 236 2255 346
3290 312 941 -31 1740 -139 2577 -348 2640 -659 4860 -2191 6448 -4450 408
-581 808 -1281 1074 -1879 233 -524 435 -1087 768 -2145 315 -1002 479 -1483
546 -1610 55 -102 138 -209 196 -250 l48 -35 270 -7 c382 -9 4555 -23 4555
-15 0 4 -22 94 -49 200 -27 105 -104 419 -171 697 -265 1103 -378 1502 -605
2135 -617 1718 -1416 3186 -2404 4415 -300 373 -539 640 -895 996 -592 591
-1128 1030 -1821 1493 -1100 734 -2327 1292 -3720 1692 -553 158 -877 225
-1895 389 -278 45 -552 90 -610 101 -99 18 -162 19 -1035 18 l-930 -1 -620
-94z"/>
<path d="M21710 37354 c-486 -58 -855 -208 -1153 -469 -168 -147 -311 -340
-423 -570 -134 -277 -208 -568 -244 -965 -8 -79 -13 -1750 -17 -5307 l-6
-5193 1717 0 1716 0 2 3523 3 3522 72 38 73 38 152 -133 c257 -222 345 -301
2203 -1968 2045 -1834 3909 -3510 4695 -4219 294 -266 576 -516 625 -556 300
-242 622 -389 990 -452 137 -23 478 -23 625 1 345 55 676 167 885 298 553 349
840 940 905 1858 13 189 13 9678 0 9940 -5 102 -12 227 -16 278 l-7 92 -1728
0 -1729 0 0 -3590 c0 -1974 -3 -3590 -8 -3590 -13 0 -469 395 -852 739 -3069
2749 -4647 4165 -5894 5290 -1002 904 -984 889 -1216 1040 -263 173 -530 282
-825 338 -77 15 -463 27 -545 17z"/>
<path d="M68440 35443 c-610 -32 -1159 -155 -1673 -374 -1423 -608 -2410
-1890 -2617 -3396 -29 -219 -40 -380 -40 -623 0 -243 11 -404 40 -623 183
-1332 975 -2491 2155 -3154 1326 -745 3048 -790 4430 -117 583 283 1104 698
1502 1194 329 411 602 922 753 1410 297 965 258 2012 -111 2950 -68 175 -233
500 -337 666 -265 425 -603 801 -1000 1111 -118 94 -403 285 -527 355 -526
298 -1112 490 -1735 567 -271 34 -599 47 -840 34z m411 -2113 c989 -100 1741
-833 1920 -1871 21 -118 23 -167 23 -409 0 -309 -14 -426 -80 -669 -207 -755
-762 -1325 -1476 -1516 -672 -180 -1377 -36 -1903 388 -178 143 -373 370 -497
579 -415 697 -446 1619 -77 2352 327 650 929 1070 1644 1145 117 12 328 13
446 1z"/>
<path d="M137990 35440 c-862 -57 -1633 -307 -2299 -747 -306 -201 -568 -421
-789 -663 -631 -688 -1003 -1506 -1118 -2460 -35 -293 -30 -810 12 -1135 237
-1859 1582 -3267 3485 -3649 362 -73 638 -99 1059 -100 353 -1 495 8 809 50
1009 135 1935 525 2754 1162 l107 83 -2 1897 -3 1897 -1937 3 -1938 2 0 -855
0 -855 830 0 830 0 0 -514 0 -515 -57 -34 c-299 -180 -636 -276 -1078 -308
-727 -51 -1383 177 -1845 641 -171 172 -287 336 -404 571 -265 532 -325 1214
-160 1817 103 377 290 708 555 986 342 358 784 579 1273 637 133 16 536 6 676
-16 551 -86 998 -290 1480 -674 108 -86 115 -90 131 -74 60 65 1349 1623 1349
1632 0 5 -46 48 -102 94 -817 669 -1681 1017 -2758 1112 -215 19 -678 27 -860
15z"/>
<path d="M82897 35308 c-8 -18 -814 -1925 -1792 -4238 -977 -2313 -1779 -4208
-1782 -4213 -2 -4 550 -6 1227 -5 l1232 3 301 753 301 752 1624 -2 1623 -3
307 -753 307 -752 3590 3 c3947 3 3658 -1 4067 62 797 123 1447 438 1819 883
263 315 409 650 464 1065 18 138 20 479 4 625 -76 700 -438 1204 -1114 1547
-139 71 -230 110 -409 175 l-128 48 96 45 c250 119 480 279 661 461 275 277
436 592 505 986 27 159 38 468 21 631 -63 611 -357 1080 -896 1432 -405 264
-939 416 -1605 457 -103 6 -1011 10 -2407 10 l-2243 0 0 -4106 c0 -2258 -3
-4103 -7 -4100 -5 2 -793 1863 -1753 4135 l-1745 4130 -1127 1 -1128 0 -13
-32z m9791 -1919 c287 -31 487 -106 632 -236 76 -69 127 -147 164 -253 29 -80
30 -93 30 -235 0 -135 -3 -158 -27 -231 -82 -247 -292 -404 -632 -473 -185
-37 -285 -41 -1111 -41 l-804 0 0 740 0 740 825 0 c512 0 863 -4 923 -11z
m-8199 -2021 c254 -648 461 -1182 461 -1188 0 -7 -298 -10 -941 -10 -892 0
-941 1 -935 18 97 256 943 2369 947 2364 4 -4 214 -537 468 -1184z m8626
-1116 c275 -52 453 -137 584 -277 66 -71 129 -188 152 -285 20 -81 17 -299 -5
-379 -81 -297 -327 -480 -751 -558 -80 -15 -208 -18 -1122 -20 l-1033 -4 0
776 0 776 1033 -4 c1002 -3 1035 -4 1142 -25z"/>
<path d="M52850 31065 l0 -4215 1175 0 1175 0 0 4215 0 4215 -1175 0 -1175 0
0 -4215z"/>
<path d="M55850 31065 l0 -4215 1155 0 1155 0 2 2307 3 2307 1795 -2307 1795
-2306 1028 -1 1027 0 0 4215 0 4215 -1160 0 -1160 0 -2 -2221 -3 -2222 -1729
2222 -1729 2221 -1089 0 -1088 0 0 -4215z"/>
<path d="M72570 34563 c159 -395 928 -2304 1709 -4243 l1420 -3525 1087 0
1087 0 1691 4200 c931 2310 1700 4219 1709 4243 l17 42 -1283 0 -1283 0 -955
-2660 c-525 -1463 -956 -2660 -959 -2660 -3 0 -435 1197 -960 2660 l-954 2660
-1307 0 -1308 0 289 -717z"/>
<path d="M96273 32698 c3 -2782 1 -2640 53 -2998 204 -1401 941 -2339 2167
-2756 1013 -344 2448 -334 3437 23 497 180 887 426 1227 777 575 591 892 1427
953 2506 6 105 10 1143 10 2603 l0 2427 -1185 0 -1184 0 -4 -2497 c-3 -2728 0
-2550 -58 -2822 -117 -538 -436 -915 -906 -1071 -420 -139 -958 -113 -1328 65
-387 187 -647 545 -754 1035 -59 274 -55 95 -58 2808 l-3 2482 -1185 0 -1186
0 4 -2582z"/>
<path d="M104640 31065 l0 -4215 1175 0 1175 0 0 4215 0 4215 -1175 0 -1175 0
0 -4215z"/>
<path d="M107640 31065 l0 -4215 3205 0 3205 0 0 1025 0 1025 -2040 0 -2040 0
0 3190 0 3190 -1165 0 -1165 0 0 -4215z"/>
<path d="M114150 31065 l0 -4215 1708 0 c1909 0 1999 3 2457 66 1262 176 2298
722 2974 1569 497 622 783 1375 852 2237 16 200 7 748 -15 928 -142 1163 -663
2079 -1551 2727 -647 472 -1506 774 -2465 868 -327 31 -549 35 -2247 35
l-1713 0 0 -4215z m3515 2135 c519 -38 951 -180 1298 -427 103 -74 291 -255
372 -358 214 -274 351 -612 400 -990 35 -267 29 -559 -15 -822 -153 -903 -808
-1502 -1800 -1647 -200 -30 -402 -37 -920 -34 l-515 3 -3 2130 c-1 1172 0
2136 3 2143 6 15 966 17 1180 2z"/>
<path d="M122500 31065 l0 -4215 1175 0 1175 0 0 4215 0 4215 -1175 0 -1175 0
0 -4215z"/>
<path d="M125500 31065 l0 -4215 1155 0 1155 0 2 2307 3 2307 1795 -2307 1795
-2306 1028 -1 1027 0 0 4215 0 4215 -1160 0 -1160 0 -2 -2221 -3 -2222 -1729
2222 -1729 2221 -1089 0 -1088 0 0 -4215z"/>
<path d="M52810 23320 l0 -1720 2154 0 c1955 0 2154 1 2160 16 3 9 5 770 4
1692 l-3 1677 -5 -1685 -5 -1685 0 1713 0 1712 -2152 0 -2153 0 0 -1720z"/>
<path d="M165845 23328 l0 -1713 -5 1685 -5 1685 -3 -1677 c-1 -922 1 -1683 4
-1692 6 -15 204 -16 2150 -16 l2144 0 0 1720 0 1720 -2142 0 -2143 0 0 -1712z"/>
<path d="M66605 24055 c-311 -48 -515 -276 -491 -548 11 -124 35 -187 104
-270 85 -103 188 -161 522 -292 305 -120 390 -170 455 -268 87 -132 65 -319
-50 -431 -61 -60 -165 -111 -257 -126 -90 -16 -261 -8 -338 15 -189 57 -312
189 -328 354 l-7 66 -78 3 c-61 2 -79 0 -83 -12 -11 -28 26 -181 61 -252 79
-161 249 -279 462 -320 109 -21 280 -18 380 6 211 50 372 184 428 355 29 87
27 259 -3 335 -46 117 -163 229 -312 298 -41 19 -181 77 -310 129 -129 51
-259 108 -288 126 -72 43 -138 109 -170 171 -23 45 -26 63 -27 146 0 84 3 102
28 152 49 100 161 181 285 207 29 6 95 11 146 11 146 0 259 -42 346 -129 61
-61 90 -117 104 -206 l12 -70 72 -3 c87 -3 90 0 73 101 -51 309 -375 508 -736
452z"/>
<path d="M70055 24060 c-320 -37 -597 -208 -772 -477 -197 -302 -222 -704 -63
-1029 135 -279 360 -468 665 -560 84 -26 102 -28 280 -28 204 0 262 10 405 67
325 132 569 430 636 777 18 90 20 279 4 375 -49 307 -227 568 -500 733 -184
111 -441 167 -655 142z m311 -169 c267 -55 500 -244 618 -503 249 -541 -90
-1178 -674 -1269 -114 -17 -286 -6 -393 25 -351 104 -600 405 -637 770 -27
266 55 518 231 710 117 128 295 232 456 266 118 25 281 25 399 1z"/>
<path d="M73885 24059 c-254 -27 -525 -169 -680 -356 -163 -195 -245 -423
-247 -683 -3 -495 296 -895 767 -1027 124 -34 358 -43 490 -18 346 65 619 289
746 613 8 22 8 22 -79 22 l-87 0 -27 -58 c-94 -201 -323 -374 -565 -424 -123
-25 -315 -20 -433 11 -105 28 -262 110 -346 180 -323 270 -406 773 -190 1155
76 133 171 229 314 315 138 83 285 121 469 121 241 0 443 -81 609 -245 66 -65
164 -210 164 -242 0 -10 24 -13 90 -13 l90 0 -21 53 c-64 165 -228 356 -387
451 -198 118 -443 171 -677 145z"/>
<path d="M90806 24059 c-606 -66 -1011 -608 -916 -1224 59 -385 320 -697 685
-822 163 -55 416 -70 590 -34 229 47 424 167 529 325 l26 39 0 -177 0 -176 80
0 80 0 0 505 0 505 -455 0 -455 0 0 -75 0 -75 376 0 375 0 -2 -82 c-8 -316
-194 -539 -524 -629 -110 -30 -384 -33 -490 -6 -106 28 -279 117 -361 185
-221 186 -334 477 -305 786 37 381 291 685 656 782 97 26 361 27 455 1 142
-38 310 -137 402 -235 54 -58 122 -159 140 -208 l12 -34 87 0 88 0 -24 61
c-74 189 -257 384 -450 481 -175 89 -402 129 -599 107z"/>
<path d="M129938 24060 c-219 -29 -384 -149 -469 -340 -21 -50 -24 -68 -24
-190 1 -160 14 -204 102 -333 30 -43 53 -80 51 -81 -44 -22 -133 -94 -177
-143 -151 -164 -205 -398 -141 -606 55 -177 221 -325 430 -384 100 -28 395
-25 505 5 103 29 205 77 280 135 l60 46 90 -90 90 -89 105 0 105 0 -147 148
-146 147 39 70 c75 135 114 276 125 454 l7 101 -80 0 -80 0 -6 -102 c-7 -124
-35 -237 -83 -338 l-35 -74 -407 413 c-223 227 -421 433 -440 457 -18 25 -45
70 -60 102 -24 50 -27 69 -27 162 0 95 3 111 28 162 38 77 98 135 186 176 65
32 85 36 175 40 174 8 279 -28 376 -127 64 -66 93 -128 105 -224 l7 -58 77 3
76 3 -3 55 c-10 183 -123 349 -297 434 -118 58 -269 83 -397 66z m145 -1418
l359 -359 -38 -31 c-103 -85 -241 -131 -419 -139 -198 -9 -339 36 -448 141
-179 172 -159 478 43 659 51 46 113 86 135 87 6 0 171 -161 368 -358z"/>
<path d="M135404 24060 c-143 -18 -277 -81 -370 -176 -113 -114 -159 -256
-136 -417 20 -139 92 -251 218 -337 58 -41 229 -118 404 -184 202 -76 341
-148 402 -208 80 -79 103 -132 103 -243 0 -76 -4 -99 -27 -147 -52 -112 -184
-204 -329 -228 -111 -19 -266 -8 -364 24 -181 62 -299 201 -308 366 l-2 45
-80 0 -80 0 3 -55 c9 -190 128 -363 315 -455 139 -68 194 -79 382 -80 124 0
174 4 224 18 200 57 353 189 406 352 29 87 27 259 -3 335 -46 117 -163 229
-312 298 -41 19 -179 76 -306 127 -266 107 -283 115 -346 165 -58 45 -88 82
-119 140 -20 38 -24 60 -24 140 0 84 3 102 28 152 49 100 161 181 285 207 75
16 217 14 285 -4 174 -45 284 -158 311 -318 l12 -72 65 -3 c91 -3 95 1 82 85
-15 95 -47 173 -98 240 -130 172 -375 263 -621 233z"/>
<path d="M150370 24064 c-432 -47 -756 -283 -901 -659 -92 -237 -95 -530 -9
-767 117 -321 371 -552 710 -646 87 -24 111 -27 280 -27 200 0 273 13 414 71
236 100 439 301 525 522 l21 52 -88 0 -87 0 -27 -58 c-94 -201 -323 -374 -565
-424 -80 -16 -122 -19 -228 -15 -72 3 -159 13 -195 22 -101 26 -275 116 -356
183 -389 327 -416 972 -55 1332 173 173 388 260 640 260 250 0 449 -79 617
-245 66 -65 164 -210 164 -242 0 -10 24 -13 90 -13 l90 0 -20 51 c-119 302
-419 536 -753 589 -76 11 -220 19 -267 14z"/>
<path d="M156634 24058 c-81 -8 -209 -52 -274 -93 -158 -99 -252 -282 -236
-459 11 -123 35 -186 104 -269 86 -104 172 -153 497 -282 270 -107 363 -154
430 -219 77 -77 100 -131 100 -241 0 -76 -4 -99 -27 -147 -71 -153 -249 -242
-477 -237 -119 2 -196 19 -289 65 -134 65 -217 178 -230 313 l-7 66 -79 0
c-93 0 -93 1 -71 -115 46 -239 237 -413 512 -466 109 -21 280 -18 380 6 211
50 372 185 429 357 28 85 26 258 -4 333 -41 103 -139 205 -262 272 -51 28
-277 123 -455 193 -209 81 -306 150 -363 259 -23 45 -26 63 -27 146 0 84 3
102 28 152 49 100 161 181 285 207 75 16 217 14 285 -4 174 -45 295 -172 313
-328 8 -66 15 -70 105 -65 l54 3 -2 59 c-1 32 -11 86 -23 121 -86 258 -367
409 -696 373z"/>
<path d="M76770 23010 l0 -1020 80 0 80 0 0 1020 0 1020 -80 0 -80 0 0 -1020z"/>
<path d="M78890 23010 l0 -1020 570 0 570 0 0 75 0 75 -490 0 -490 0 0 400 0
400 444 0 c503 0 456 -9 456 91 l0 59 -450 0 -450 0 2 395 3 396 480 2 480 2
3 73 3 72 -566 0 -565 0 0 -1020z"/>
<path d="M81672 23958 l3 -73 293 -3 292 -2 0 -945 0 -945 80 0 80 0 0 945 0
945 278 1 c152 1 283 1 290 0 9 -1 12 19 12 74 l0 75 -665 0 -666 0 3 -72z"/>
<path d="M84780 23010 l0 -1020 570 0 570 0 0 75 0 75 -490 0 -490 0 0 400 0
400 433 1 c237 1 439 2 447 3 12 1 16 18 18 74 l3 72 -451 0 -450 0 0 395 0
395 458 1 c251 1 468 2 482 2 24 2 25 5 28 75 l3 72 -566 0 -565 0 0 -1020z"/>
<path d="M93790 23010 l0 -1020 570 0 570 0 0 75 0 75 -490 0 -490 0 0 403 0
402 417 -3 c230 -2 433 0 451 3 l33 6 -2 70 -2 69 -448 0 -449 0 0 398 0 397
482 0 483 0 3 73 3 72 -566 0 -565 0 0 -1020z"/>
<path d="M96770 23010 l0 -1020 80 0 80 0 2 858 3 858 515 -857 515 -858 72
-1 73 0 0 1020 0 1020 -80 0 -80 0 -2 -860 -3 -859 -515 857 -516 857 -72 3
-72 3 0 -1021z"/>
<path d="M100060 23010 l0 -1020 570 0 570 0 0 75 0 75 -490 0 -490 0 0 400 0
400 433 1 c237 1 439 2 447 3 12 1 16 18 18 74 l3 72 -451 0 -450 0 0 395 0
395 458 1 c251 1 468 2 482 2 24 2 25 5 28 75 l3 72 -566 0 -565 0 0 -1020z"/>
<path d="M103040 23010 l0 -1020 80 0 80 0 0 415 0 415 253 -1 252 0 360 -412
360 -412 103 -3 103 -3 -374 423 c-341 385 -373 424 -353 432 142 59 193 90
266 164 123 125 176 256 174 432 -3 219 -126 420 -320 522 -125 66 -146 68
-588 68 l-396 0 0 -1020z m892 827 c133 -65 223 -185 248 -331 35 -200 -63
-395 -247 -487 l-68 -34 -332 -3 -333 -3 0 451 0 451 328 -3 328 -3 76 -38z"/>
<path d="M106509 23013 l-395 -1018 79 -3 c44 -2 82 -1 84 2 3 3 49 119 103
258 l99 253 509 3 509 2 99 -260 99 -260 83 0 c75 0 83 2 78 18 -4 9 -181 467
-394 1017 l-387 1000 -85 3 -85 3 -396 -1018z m684 292 c108 -280 207 -540
221 -577 l25 -68 -451 0 c-356 0 -449 3 -445 13 190 504 444 1154 448 1149 4
-4 95 -236 202 -517z"/>
<path d="M109620 23010 l0 -1020 560 0 560 0 0 75 0 75 -480 0 -480 0 0 945 0
945 -80 0 -80 0 0 -1020z"/>
<path d="M112510 23010 l0 -1020 570 0 570 0 0 75 0 75 -490 0 -490 0 0 403 0
402 417 -3 c230 -2 433 0 451 3 l33 6 -2 70 -2 69 -448 0 -449 0 0 398 0 397
482 0 483 0 3 73 3 72 -566 0 -565 0 0 -1020z"/>
<path d="M117720 23010 l0 -1020 538 0 c504 0 544 1 616 20 234 60 417 258
471 510 19 94 12 257 -15 345 -54 172 -167 315 -307 388 l-72 37 25 48 c49 95
62 236 33 347 -41 153 -182 287 -344 329 -49 13 -134 16 -502 16 l-443 0 0
-1020z m926 854 c81 -25 143 -79 184 -158 31 -62 35 -77 35 -151 0 -74 -3 -89
-35 -151 l-35 -69 -458 -3 -457 -2 0 277 0 278 357 -2 c296 -2 367 -5 409 -19z
m237 -712 c135 -55 242 -172 288 -314 43 -136 29 -310 -37 -439 -58 -115 -197
-222 -322 -248 -34 -7 -209 -11 -492 -11 l-440 0 0 520 0 521 473 -3 c469 -3
472 -3 530 -26z"/>
<path d="M120872 23958 l3 -73 293 -3 292 -2 0 -945 0 -945 80 0 80 0 0 945 0
945 278 1 c152 1 283 1 290 0 9 -1 12 19 12 74 l0 75 -665 0 -666 0 3 -72z"/>
<path d="M123980 23010 l0 -1020 80 0 80 0 0 414 0 414 318 5 c348 4 376 8
502 70 97 47 217 169 263 267 47 102 62 168 61 280 -3 219 -126 420 -320 522
-125 66 -146 68 -588 68 l-396 0 0 -1020z m860 844 c100 -39 198 -130 243
-225 107 -226 13 -498 -210 -610 l-68 -34 -332 -3 -333 -3 0 450 0 451 273 2
c298 3 360 -1 427 -28z"/>
<path d="M138020 23010 l0 -1020 570 0 570 0 0 75 0 75 -490 0 -490 0 0 400 0
400 445 0 445 0 5 23 c4 13 5 46 3 73 l-3 49 -447 3 -448 2 0 395 0 395 483 2
482 3 3 73 3 72 -566 0 -565 0 0 -1020z"/>
<path d="M141000 23010 l0 -1020 80 0 80 0 0 415 0 415 253 -1 252 0 360 -412
360 -412 103 -3 103 -3 -307 348 c-169 191 -338 382 -376 424 l-68 76 70 26
c184 68 334 235 381 427 7 30 13 98 13 150 -2 219 -127 421 -322 523 -123 64
-145 67 -586 67 l-396 0 0 -1020z m840 850 c261 -88 381 -387 258 -638 -64
-129 -200 -226 -335 -240 -38 -4 -188 -6 -335 -4 l-268 2 0 453 0 452 309 -2
c285 -2 313 -3 371 -23z"/>
<path d="M143960 24026 c0 -4 454 -1224 688 -1851 l68 -180 84 -3 85 -2 375
1006 c206 553 376 1013 378 1020 3 12 -11 14 -79 12 l-83 -3 -335 -912 c-184
-502 -337 -913 -340 -913 -3 0 -61 152 -129 338 -68 185 -218 597 -334 915
l-211 577 -83 0 c-46 0 -84 -2 -84 -4z"/>
<path d="M147390 23010 l0 -1020 80 0 80 0 0 1020 0 1020 -80 0 -80 0 0 -1020z"/>
<path d="M153210 23010 l0 -1020 570 0 570 0 0 75 0 75 -490 0 -490 0 0 400 0
400 444 0 c503 0 456 -9 456 91 l0 59 -450 0 -450 0 2 395 3 396 480 2 480 2
3 73 3 72 -566 0 -565 0 0 -1020z"/>
<path d="M18510 23089 c-283 -5 -1083 -6 -1777 -2 l-1262 6 25 -94 c97 -356
252 -835 374 -1154 754 -1969 1987 -3622 3613 -4843 730 -549 1551 -1010 2417
-1357 953 -381 2013 -634 3055 -729 380 -35 539 -41 1045 -41 521 0 654 6
1093 46 1445 132 2957 554 4361 1217 90 43 114 58 100 63 -42 17 -173 7 -414
-31 -1020 -161 -1463 -202 -2205 -202 -498 0 -846 21 -1295 78 -1469 185
-2835 698 -4093 1536 -1536 1023 -2713 2453 -3522 4278 -103 233 -272 654
-335 836 -28 81 -65 174 -82 206 -40 74 -112 140 -186 169 -71 28 -183 30
-912 18z"/>
</g>
</svg>
